<svg xmlns="http://www.w3.org/2000/svg" viewBox="0 0 153.51 99.86"><defs><style>.cls-1{fill:#069;opacity:0.1;}.cls-2,.cls-4,.cls-5{fill:none;}.cls-2,.cls-4{stroke:#000;}.cls-2{stroke-width:0.15px;}.cls-3{fill:#299951;}.cls-4{stroke-width:0.75px;}.cls-5{stroke:#299951;stroke-width:2px;}</style></defs><g id="_Layer_2" data-name="&lt;Layer&gt;"><polygon class="cls-1" points="12.29 89.64 141.78 89.64 141.78 9.02 12.29 89.64"/><path d="M68.71,76a2.74,2.74,0,0,1,.09,1.23l1.32-2.14h1l-2.32,3.81a2.94,2.94,0,0,0,0,.68A1.05,1.05,0,0,0,69,80a.81.81,0,0,0,.2.21.37.37,0,0,0,.22.08.66.66,0,0,0,.39-.16,1.28,1.28,0,0,0,.3-.34l.2-.47h.22l-.2.71a1.58,1.58,0,0,1-.24.49,1.73,1.73,0,0,1-.43.46,1,1,0,0,1-.47.18.56.56,0,0,1-.41-.28,3.5,3.5,0,0,1-.34-1.4c-.2.22-.41.47-.64.75a2.66,2.66,0,0,1-1,.7c-.26.08-.51.14-.75.19a2.86,2.86,0,0,1-.51.06,2.22,2.22,0,0,1-1-.26,1.33,1.33,0,0,1-.67-.72,3,3,0,0,1-.17-.93,4.32,4.32,0,0,1,.14-1l.12-.42c.07-.21.15-.43.25-.67a3.25,3.25,0,0,1,.59-1,4.32,4.32,0,0,1,1.07-.87A2.85,2.85,0,0,1,67.31,75h.26l.23,0a1,1,0,0,1,.48.28,1.91,1.91,0,0,1,.43.73Zm-1.58,3.9a6.69,6.69,0,0,0,.49-.66l.61-1c0-.46.08-.88.1-1.25a1.79,1.79,0,0,0-.1-.74A1.93,1.93,0,0,0,68,75.8a1.05,1.05,0,0,0-.44-.27,1.22,1.22,0,0,0-.46-.09.77.77,0,0,0-.39.11,4.26,4.26,0,0,0-.44.35,2.6,2.6,0,0,0-.46.6,5.07,5.07,0,0,0-.37.81,7.54,7.54,0,0,0-.27.81,7.78,7.78,0,0,0-.15.8.62.62,0,0,1,0,.13v.16l0,.14s0,.08,0,.13a1.57,1.57,0,0,0,0,.48,1,1,0,0,0,.27.53.62.62,0,0,0,.58.29,1.13,1.13,0,0,0,.38-.08,2,2,0,0,0,.43-.23,2.89,2.89,0,0,0,.53-.53Z" transform="translate(0 -2.09)"/><path class="cls-2" d="M53.61,66.14a48.21,48.21,0,0,1,7.61,25.72" transform="translate(0 -2.09)"/><line class="cls-2" x1="127.62" y1="75.67" x2="127.62" y2="89.36"/><line class="cls-2" x1="141.31" y1="75.68" x2="127.62" y2="75.68"/><path class="cls-3" d="M149.59,51.64a.82.82,0,0,1,.21.34l0,.08.13-.44,0-.1a.11.11,0,0,1,.09,0l.67-.08a.1.1,0,0,1,.07,0,.23.23,0,0,1,0,.07,1,1,0,0,0,0,.12l0,.13-.58,2.1c-.13.45-.24.85-.32,1.18a7.91,7.91,0,0,0-.22,1,.16.16,0,0,0,0,.12.2.2,0,0,0,.11,0,.27.27,0,0,0,.12,0l.16-.11.1-.08.11-.09.15-.14.38-.38.14.13a5.73,5.73,0,0,1-1,1.05,1.24,1.24,0,0,1-.72.28.43.43,0,0,1-.35-.15.6.6,0,0,1-.12-.38,3.54,3.54,0,0,1,.08-.6c0-.27.11-.49.16-.67a5.26,5.26,0,0,1-.36.51,3.73,3.73,0,0,1-.61.66,3,3,0,0,1-.82.54,1.77,1.77,0,0,1-.58.1,1.17,1.17,0,0,1-.86-.39,1.49,1.49,0,0,1-.39-1.1,4.1,4.1,0,0,1,1.11-2.57,3.18,3.18,0,0,1,2.39-1.39A1,1,0,0,1,149.59,51.64Zm-.19.22a.66.66,0,0,0-.48-.2c-.64,0-1.24.49-1.79,1.47a4.67,4.67,0,0,0-.73,2.22,1,1,0,0,0,.2.69.69.69,0,0,0,.5.21c.59,0,1.16-.48,1.7-1.43a4.55,4.55,0,0,0,.79-2.34A.85.85,0,0,0,149.4,51.86Z" transform="translate(0 -2.09)"/><path class="cls-2" d="M141.82,42.65A31.38,31.38,0,0,1,115.08,27.7" transform="translate(0 -2.09)"/><polygon class="cls-4" points="12.28 89.78 141.77 89.78 141.77 9.16 12.28 89.78"/><path d="M120.06,49.72a2.55,2.55,0,0,1-1-.58l-.58,2.22c0,.11-.08.27-.16.5s-.08.2-.11.27l-.05.13h-1l.35-1,.3-.83,2-7.86a1.9,1.9,0,0,1,.54-1,4.82,4.82,0,0,1,1-.62,2.48,2.48,0,0,1,1.2-.29,2,2,0,0,1,1.38.39,2.2,2.2,0,0,1,.51.77,1.29,1.29,0,0,1,0,.78,2.07,2.07,0,0,1-.13.36,2.59,2.59,0,0,1-.38.61,4.52,4.52,0,0,1-.93.8,2.13,2.13,0,0,1,.77.69,2.27,2.27,0,0,1,.28,1,4,4,0,0,1-.12,1.09,5,5,0,0,1-.38,1,2.71,2.71,0,0,1-.8,1,3,3,0,0,1-.82.5,4.52,4.52,0,0,1-.56.13,5,5,0,0,1-.5,0,5.57,5.57,0,0,1-.68-.07Zm1-8.06a1.84,1.84,0,0,0-.44.75l-1.51,6.06c.08.1.18.22.32.37a1.4,1.4,0,0,0,.43.24,1.89,1.89,0,0,0,.72.14,1.59,1.59,0,0,0,.7-.17,1.82,1.82,0,0,0,.6-.45,3.85,3.85,0,0,0,.39-.6,4.76,4.76,0,0,0,.22-.67,3.76,3.76,0,0,0,.13-1.26,2.09,2.09,0,0,0-.26-1,.6.6,0,0,0-.51-.33h-.14l-.22,0-.21,0a.63.63,0,0,1-.32-.1.23.23,0,0,1-.11-.24.31.31,0,0,1,.09-.16l.15-.13a.67.67,0,0,1,.21-.1l.21,0,.33,0,.14,0,.1,0a.41.41,0,0,0,.26-.09l.37-.37a1.92,1.92,0,0,0,.38-.88,2.28,2.28,0,0,0,0-.78,1.06,1.06,0,0,0-.24-.58,1.43,1.43,0,0,0-.38-.26,1.35,1.35,0,0,0-.37-.06,1.6,1.6,0,0,0-.45.09,1.68,1.68,0,0,0-.64.46Z" transform="translate(0 -2.09)"/><path d="M84.17,94.69c0-.08,0-.16,0-.23a1.09,1.09,0,0,0,0-.17.28.28,0,0,0,0-.15s-.08-.09-.18-.11l-.13,0-.42,0v-.21l.41,0,.59-.08.36-.08a2.14,2.14,0,0,1,.45-.07l.06,0a.14.14,0,0,1,0,.07v.08L84.15,98.1A6.94,6.94,0,0,1,85,97a1.91,1.91,0,0,1,1.32-.59,1.33,1.33,0,0,1,1,.42,1.5,1.5,0,0,1,.39,1,3.8,3.8,0,0,1-1.28,2.73,3.59,3.59,0,0,1-2.56,1.24,2.27,2.27,0,0,1-1.1-.27c-.34-.17-.49-.32-.47-.42Zm1.77,5.55A4,4,0,0,0,86.76,98a1.05,1.05,0,0,0-.24-.73.78.78,0,0,0-.6-.28c-.62,0-1.21.56-1.78,1.67a5.56,5.56,0,0,0-.73,2.4.48.48,0,0,0,.14.37.67.67,0,0,0,.46.13A2.44,2.44,0,0,0,85.94,100.24Z" transform="translate(0 -2.09)"/><path class="cls-3" d="M76.64,42.74a1,1,0,0,1,.32.63.54.54,0,0,1-.16.42.57.57,0,0,1-.39.16.49.49,0,0,1-.36-.14.43.43,0,0,1-.15-.33.65.65,0,0,1,.1-.33.7.7,0,0,0,.09-.23.21.21,0,0,0-.12-.18.75.75,0,0,0-.38-.07A2,2,0,0,0,74,43.74,4.12,4.12,0,0,0,73.26,46a1.67,1.67,0,0,0,.28,1,1,1,0,0,0,.84.38,1.72,1.72,0,0,0,.88-.26,3.75,3.75,0,0,0,.78-.67l0,0,.17.12a4.37,4.37,0,0,1-.79.81,2.52,2.52,0,0,1-1.49.48,1.69,1.69,0,0,1-1.28-.5A1.89,1.89,0,0,1,72.21,46a3.45,3.45,0,0,1,1.08-2.44,3.18,3.18,0,0,1,2.32-1.12A1.41,1.41,0,0,1,76.64,42.74Z" transform="translate(0 -2.09)"/><path d="M0,101.53a1.17,1.17,0,0,0,.63-.37,12.23,12.23,0,0,0,.92-1.45l3.51-6h.26l1.16,6.79a1.81,1.81,0,0,0,.26.82,1,1,0,0,0,.65.21v.19h-3v-.19a2.64,2.64,0,0,0,.69-.13.45.45,0,0,0,.25-.46v-.19c0-.06,0-.12,0-.17L5.09,99H2.53l-.75,1.35a2.59,2.59,0,0,0-.14.29,1.54,1.54,0,0,0-.1.45.33.33,0,0,0,.16.32,1.27,1.27,0,0,0,.55.11v.19H0Zm5-3-.51-3.11L2.77,98.58Z" transform="translate(0 -2.09)"/><path d="M145.42,9.72a1.17,1.17,0,0,0,.58-.15,1.33,1.33,0,0,0,.4-.73l1.47-5.31.09-.31a2.13,2.13,0,0,0,.06-.4.46.46,0,0,0-.2-.42,1.88,1.88,0,0,0-.74-.12V2.09h3.1a4.3,4.3,0,0,1,1.4.2,1.55,1.55,0,0,1,1,1.54,1.59,1.59,0,0,1-.83,1.43,4.24,4.24,0,0,1-1.25.45,2.93,2.93,0,0,1,.93.51A1.79,1.79,0,0,1,152,7.61a2,2,0,0,1-.87,1.64,3.9,3.9,0,0,1-2.39.66h-3.32Zm4.72-.81a2.15,2.15,0,0,0,.55-1.49,1.25,1.25,0,0,0-.64-1.27A4.94,4.94,0,0,0,148.4,6l-.76,2.72a1.33,1.33,0,0,0,0,.19,1.21,1.21,0,0,0,0,.18.41.41,0,0,0,.29.43,1.82,1.82,0,0,0,.54.06A2.18,2.18,0,0,0,150.14,8.91ZM149,5.56a3.36,3.36,0,0,0,1.45-.26,1.64,1.64,0,0,0,.89-1.63,1.09,1.09,0,0,0-.38-.95,1.66,1.66,0,0,0-1-.28,1.23,1.23,0,0,0-.53.08.41.41,0,0,0-.19.26l-.77,2.77Z" transform="translate(0 -2.09)"/><path d="M152.08,93.88a5.52,5.52,0,0,0,.74.14.47.47,0,0,0,.3-.07.53.53,0,0,0,.15-.2h.24l-.44,2.39-.21,0a2.86,2.86,0,0,0-.31-1.14,1.62,1.62,0,0,0-1.53-.8,3.11,3.11,0,0,0-2.7,1.64,5.54,5.54,0,0,0-.93,3.09,2.74,2.74,0,0,0,.56,1.86,1.84,1.84,0,0,0,1.45.64,3.25,3.25,0,0,0,1.68-.45,7.3,7.3,0,0,0,1.17-1l.2.17a5.19,5.19,0,0,1-1.49,1.3,3.56,3.56,0,0,1-1.82.48,2.85,2.85,0,0,1-2.31-1,3.34,3.34,0,0,1-.8-2.21,5,5,0,0,1,1.34-3.35A4.56,4.56,0,0,1,151,93.74,5.35,5.35,0,0,1,152.08,93.88Z" transform="translate(0 -2.09)"/><line class="cls-5" x1="11.52" y1="89.95" x2="142.59" y2="8.17"/><line class="cls-5" x1="141.74" y1="8.46" x2="141.74" y2="90.13"/></g></svg>